<?xml version="1.0" standalone="no"?>
<!DOCTYPE svg PUBLIC "-//W3C//DTD SVG 20010904//EN"
 "http://www.w3.org/TR/2001/REC-SVG-20010904/DTD/svg10.dtd">
<svg version="1.0" xmlns="http://www.w3.org/2000/svg"
 width="700.000000pt" height="379.000000pt" viewBox="0 0 700.000000 379.000000"
 preserveAspectRatio="xMidYMid meet">

<g transform="translate(0.000000,379.000000) scale(0.100000,-0.100000)"
fill="#000000" stroke="none">
<path d="M4250 3763 c-282 -8 -669 -42 -880 -78 -47 -8 -164 -26 -260 -41
-253 -38 -331 -64 -522 -180 -146 -88 -437 -303 -518 -383 -13 -13 -15 -12
-18 7 -3 18 -10 22 -42 22 -21 0 -49 -4 -62 -9 -34 -13 -81 -60 -75 -75 6 -15
-36 -31 -53 -21 -11 7 -24 -57 -18 -90 4 -17 1 -25 -9 -25 -10 0 -12 -6 -8
-20 7 -22 9 -22 -145 -45 -135 -21 -142 -22 -100 -24 75 -3 69 -18 -24 -61
-49 -22 -87 -42 -85 -45 2 -2 60 18 129 45 69 27 151 57 183 65 35 10 57 22
57 31 0 7 10 16 23 19 59 13 252 35 313 35 38 0 97 4 131 8 42 6 64 5 67 -2 3
-7 5 -6 5 2 1 6 6 12 12 12 5 0 7 -4 4 -10 -4 -6 9 -10 32 -10 22 0 44 -5 50
-11 7 -7 13 -7 17 -1 4 7 18 7 39 2 17 -5 39 -9 47 -8 42 3 543 -3 539 -6 -2
-2 -71 -18 -154 -35 -185 -37 -383 -88 -535 -136 -96 -31 -133 -37 -220 -40
-58 -2 -136 -7 -175 -10 -38 -4 -90 -8 -115 -9 -25 -1 -51 -5 -57 -9 -7 -5
-13 -5 -13 -2 0 4 -7 -1 -16 -10 -12 -12 -19 -13 -30 -4 -11 9 -14 8 -15 -7 0
-15 -2 -16 -7 -4 -7 16 -25 20 -38 8 -15 -16 -26 -7 -13 10 12 16 12 16 -6 0
-16 -15 -17 -19 -4 -35 12 -16 12 -17 -1 -7 -17 13 -90 24 -90 13 0 -10 -48
-21 -110 -25 -64 -4 -104 -9 -183 -24 -31 -6 -62 -8 -67 -5 -6 3 -23 -3 -40
-15 -24 -17 -42 -20 -100 -19 -39 1 -73 6 -77 12 -4 6 0 7 8 3 8 -4 4 1 -8 12
-12 11 -20 22 -17 25 4 3 -10 9 -29 12 -27 5 -34 11 -29 23 8 21 -40 -13 -87
-62 -19 -20 -58 -48 -85 -62 -62 -32 -116 -72 -116 -85 0 -6 5 -7 11 -4 5 4
20 8 32 10 12 1 40 7 62 13 57 16 118 21 310 26 171 5 286 -4 312 -25 7 -6 17
-26 22 -43 9 -29 9 -29 10 -6 1 15 -4 31 -10 37 -9 9 -7 12 7 12 10 -1 29 2
40 6 14 4 27 1 35 -8 12 -12 18 -12 47 0 109 46 621 38 722 -10 14 -7 30 -27
37 -47 l12 -35 0 34 c1 32 2 33 15 16 7 -10 22 -19 32 -20 11 0 25 -4 32 -9 6
-4 12 -4 12 1 0 4 4 2 8 -5 10 -15 58 -19 87 -7 11 4 -1 -13 -27 -39 -26 -26
-64 -75 -84 -109 -21 -34 -44 -71 -51 -82 -13 -19 -14 -19 -8 6 6 24 4 26 -24
27 -19 0 -31 -4 -31 -12 0 -8 -8 -20 -17 -27 -15 -12 -16 -12 -9 6 41 103 46
155 6 68 -22 -48 -83 -110 -66 -67 21 55 56 190 56 219 0 18 -8 39 -18 48 -58
53 -597 61 -684 10 -46 -27 -70 -73 -76 -148 -5 -73 -16 -84 -26 -26 -7 45
-26 65 -26 28 0 -14 -7 -30 -15 -37 -13 -11 -15 -1 -15 77 0 119 -6 124 -138
134 -104 7 -335 -5 -374 -20 -55 -21 -78 -82 -77 -206 0 -103 14 -140 64 -176
34 -23 57 -30 145 -40 101 -11 256 -8 293 7 10 3 29 23 42 43 28 41 34 34 8
-10 -9 -16 -31 -35 -48 -43 -72 -34 -352 -27 -437 10 -51 23 -76 76 -85 184
l-8 85 -38 0 c-21 1 -41 -3 -43 -7 -3 -4 -30 -8 -60 -8 -30 0 -54 -4 -54 -8 0
-15 36 -42 55 -42 10 0 27 7 37 17 17 15 18 14 18 -15 l0 -32 -117 6 c-146 7
-163 10 -164 32 0 12 -3 10 -11 -8 -9 -21 -12 -22 -15 -7 -3 10 2 26 10 35 13
15 13 24 2 67 -9 32 -10 58 -4 75 l9 25 -19 -25 c-11 -14 -41 -63 -67 -109
-39 -70 -45 -87 -36 -106 15 -32 80 -43 116 -20 22 15 46 17 156 13 71 -2 132
-7 136 -10 7 -8 -26 -71 -63 -123 l-30 -40 -139 8 c-76 4 -168 6 -204 5 -63
-3 -64 -3 -37 -17 31 -16 31 -31 -2 -47 -19 -10 -20 -12 -6 -18 9 -3 28 -6 41
-6 13 0 24 -4 24 -9 0 -5 -8 -7 -19 -4 -10 3 -22 -1 -26 -8 -5 -8 -4 -10 3 -5
7 4 12 1 12 -9 0 -9 -5 -13 -11 -9 -7 4 -10 1 -7 -7 3 -8 1 -24 -3 -36 -6 -15
-5 -22 3 -20 6 1 12 -3 15 -9 2 -7 -19 -12 -64 -13 -37 -1 -72 -6 -77 -11 -6
-6 -5 -24 2 -48 7 -22 12 -48 12 -58 0 -16 -2 -17 -10 -4 -15 23 -12 -81 5
-201 20 -134 32 -176 50 -183 8 -3 15 -13 15 -22 0 -10 -5 -14 -15 -10 -11 4
-15 -2 -15 -24 0 -17 5 -30 11 -30 5 0 7 -5 4 -10 -8 -13 20 -99 51 -155 17
-30 38 -50 68 -65 34 -16 47 -30 60 -63 9 -24 16 -53 16 -67 0 -15 18 -41 52
-75 29 -29 67 -67 83 -86 17 -19 50 -51 75 -71 l45 -38 -30 0 c-44 0 -134 -26
-154 -44 -10 -9 -21 -13 -26 -9 -5 5 1 -6 13 -23 40 -58 117 -82 412 -125 186
-27 265 -35 540 -55 124 -9 248 -17 275 -19 28 -2 68 -6 90 -9 22 -3 81 -8
130 -11 50 -3 101 -8 115 -10 14 -2 75 -7 135 -10 61 -3 142 -8 180 -11 39 -2
117 -7 175 -9 187 -8 303 -14 385 -20 150 -11 290 -15 520 -15 255 0 352 4
500 21 55 6 115 13 132 14 18 2 45 6 60 9 37 8 60 12 113 21 25 3 79 13 120
22 78 16 280 52 435 79 50 9 110 19 135 24 110 20 167 30 190 35 14 3 51 10
83 15 31 6 83 14 115 20 31 5 68 12 82 15 14 2 39 7 55 10 17 3 48 10 70 15
37 8 314 58 360 65 18 3 115 19 175 29 14 3 70 12 125 21 182 28 201 32 265
46 25 6 90 19 145 29 55 10 113 21 129 25 51 11 130 47 159 73 29 28 36 48 13
39 -11 -4 -9 4 6 29 22 37 65 170 79 244 4 25 11 108 14 185 4 77 13 160 20
185 32 103 46 285 32 400 -11 84 -21 165 -22 175 -1 6 -7 23 -13 38 -7 16 -12
32 -12 37 0 4 -16 31 -35 59 -26 37 -31 51 -20 51 8 0 15 -4 15 -10 0 -14 23
-13 37 1 13 13 -18 81 -93 206 -24 40 -44 77 -44 83 0 20 18 9 60 -36 23 -25
40 -37 37 -27 -3 10 -9 34 -13 53 -3 19 -13 44 -21 56 -7 12 -19 60 -25 107
-10 78 -14 86 -36 92 -13 3 -36 18 -50 33 -15 15 -24 23 -20 17 26 -32 -17
-59 -110 -70 -45 -5 -67 -3 -78 6 -13 10 -17 10 -23 0 -6 -9 -27 -12 -70 -9
-33 1 -62 -1 -64 -5 -1 -4 -61 -12 -132 -18 -72 -5 -175 -14 -229 -20 -76 -8
-101 -8 -106 2 -5 7 -13 8 -21 3 -21 -14 -163 -32 -173 -23 -10 9 33 29 62 29
9 0 24 4 32 10 11 7 8 11 -15 20 -39 15 -69 9 -73 -14 -10 -52 -18 -54 -378
-91 -186 -20 -388 -40 -449 -45 -115 -10 -248 -28 -277 -36 -13 -4 -18 -16
-18 -40 0 -19 -7 -48 -15 -64 -21 -41 -101 -80 -162 -80 -148 0 -326 -106
-428 -255 -21 -30 -41 -55 -44 -56 -3 0 -23 -1 -44 -3 -25 -2 -52 -14 -79 -37
-37 -29 -51 -34 -108 -36 -64 -3 -65 -3 -29 10 20 8 76 44 124 82 121 95 153
115 189 122 17 3 49 22 71 42 51 47 129 101 147 101 10 0 10 2 -1 9 -8 6 -10
14 -5 22 5 8 9 21 9 29 1 18 -32 84 -62 126 -13 17 -21 33 -18 36 3 3 -8 11
-25 18 -24 10 -59 11 -143 5 -62 -5 -175 -9 -252 -10 -128 -2 -145 -5 -190
-27 -44 -22 -67 -26 -205 -32 -85 -3 -186 -9 -224 -13 -45 -4 -67 -3 -63 4 10
16 -61 33 -90 22 -52 -20 -31 -1 28 26 39 17 83 28 118 30 31 1 83 9 116 18
59 15 197 43 265 53 19 3 102 7 183 9 82 2 161 8 175 13 27 10 124 36 342 91
63 16 160 45 215 65 84 31 109 36 158 32 32 -2 64 -10 72 -16 8 -7 28 -10 45
-8 27 4 29 3 23 -21 -11 -39 -6 -77 15 -124 34 -74 38 -76 134 -80 105 -5 183
7 220 34 18 12 44 19 75 19 45 0 126 13 288 46 39 7 88 16 110 19 22 4 47 8
55 10 8 2 42 7 75 11 33 3 68 10 78 16 10 5 26 6 37 3 10 -3 21 -1 25 5 3 6
11 8 16 5 5 -4 9 1 9 9 0 27 -32 33 -145 30 -391 -11 -432 -14 -505 -33 -41
-10 -76 -15 -78 -10 -5 12 -32 11 -32 -1 0 -5 -5 -10 -11 -10 -6 0 -9 12 -7
28 2 19 9 27 23 28 30 2 333 34 470 49 l120 14 -94 -4 c-51 -2 -91 -1 -88 2 3
2 70 11 148 18 132 13 144 13 156 -3 13 -16 13 -15 11 3 -3 18 11 21 182 45
102 14 190 28 197 33 7 4 16 1 21 -9 11 -20 36 -9 28 12 -6 16 10 19 19 4 10
-16 25 -12 25 8 0 14 4 13 19 -7 18 -23 19 -23 50 -8 18 9 31 11 31 5 0 -6 11
-8 25 -6 21 5 23 3 13 -10 -10 -12 -9 -14 7 -10 28 5 22 54 -17 143 -41 94
-64 125 -131 180 -31 26 -55 51 -52 55 5 8 -30 42 -55 54 -8 4 1 -6 20 -23 19
-17 32 -31 27 -31 -15 0 -92 62 -90 74 2 6 -12 20 -30 30 l-32 17 25 -21 c14
-13 24 -28 22 -35 -1 -7 21 -30 50 -52 67 -51 118 -103 118 -121 0 -8 -9 -16
-20 -19 -24 -6 -24 -6 -4 -44 34 -66 5 -33 -56 64 -82 130 -150 225 -150 209
0 -7 32 -60 70 -117 39 -57 70 -108 70 -114 0 -5 -8 -11 -19 -14 -14 -3 -21 3
-29 29 -5 18 -36 81 -67 140 l-57 107 -122 57 c-109 52 -256 108 -328 124 -21
5 -28 3 -28 -8 0 -8 8 -15 18 -14 46 1 285 -87 412 -152 36 -18 85 -94 142
-222 l26 -56 -59 -7 c-32 -4 -59 -9 -59 -12 0 -3 15 -23 34 -43 19 -21 39 -48
46 -59 10 -20 8 -21 -43 -21 -30 0 -75 3 -101 6 -43 6 -46 9 -46 35 0 46 -27
65 -84 61 -46 -4 -47 -5 -41 -31 5 -20 4 -23 -6 -14 -6 6 -17 9 -24 6 -8 -3
-18 9 -26 31 -16 45 -26 46 -21 3 2 -21 -2 -38 -10 -45 -12 -10 -21 9 -52 114
-20 69 -60 180 -87 247 -28 67 -53 129 -56 137 -10 29 71 -106 109 -180 21
-41 38 -72 38 -69 1 29 -114 274 -148 317 -14 18 -33 25 -88 32 -127 17 -214
12 -269 -14 -86 -40 -138 -152 -219 -470 -24 -93 -41 -142 -55 -154 -11 -9
-26 -43 -34 -75 -13 -54 -13 -60 4 -82 11 -13 19 -27 19 -32 0 -4 -5 0 -11 10
-12 21 -32 22 -49 2 -9 -11 -24 -13 -54 -9 -51 7 -169 45 -178 58 -3 5 -20 -5
-37 -22 -24 -24 -43 -32 -85 -37 -83 -11 -89 0 -8 14 79 14 90 22 66 45 -21
22 -56 20 -87 -4 -14 -11 -52 -26 -84 -34 -52 -13 -51 -22 2 -17 12 1 16 -2
10 -8 -6 -5 -53 -12 -105 -16 -52 -4 -103 -11 -113 -17 -11 -5 -30 -7 -43 -4
-14 4 -41 2 -62 -3 -20 -5 -73 -14 -117 -21 -165 -23 -444 -85 -595 -132 -175
-53 -245 -79 -443 -163 -22 -9 -36 -11 -32 -6 3 6 -1 11 -9 11 -9 0 -16 5 -16
12 0 6 -3 9 -6 6 -4 -5 -54 37 -54 46 0 14 44 48 65 50 17 1 23 5 20 15 -4 9
1 12 15 8 11 -3 20 -1 20 5 0 6 7 8 15 4 8 -3 15 -2 15 3 0 5 10 12 23 16 12
4 40 13 62 21 84 27 152 45 215 55 147 24 289 39 425 44 112 5 224 14 270 21
11 2 34 5 52 8 114 15 133 19 133 28 0 5 4 7 9 3 5 -3 12 -2 15 3 3 5 0 9 -7
9 -7 1 -37 7 -67 16 -52 13 -53 15 -25 21 17 3 68 10 115 16 234 26 254 30
304 63 l49 31 -26 11 -26 11 48 39 c46 36 77 79 72 99 -3 13 60 76 77 76 7 0
11 4 7 9 -6 11 10 50 42 104 13 20 20 37 17 37 -4 0 1 9 11 20 15 16 15 22 5
35 -10 12 -10 15 3 15 20 0 102 88 101 106 -1 8 2 14 7 14 5 0 4 12 -2 26 -5
15 -7 29 -4 32 2 3 -3 11 -13 18 -16 12 -16 13 4 14 11 0 28 -6 39 -13 17 -14
17 -17 0 -105 -9 -50 -14 -95 -11 -101 4 -6 0 -38 -9 -72 -9 -34 -14 -63 -12
-66 3 -2 8 10 12 27 4 18 16 52 27 77 11 25 17 54 15 65 -3 11 -3 17 1 14 6
-7 62 77 62 93 0 5 7 12 16 15 8 3 13 10 10 14 -3 5 2 21 10 36 17 33 17 36 5
36 -8 0 -22 -26 -84 -157 -6 -13 -12 -21 -15 -19 -5 5 24 102 38 128 8 14 2
19 -33 32 l-42 16 52 -4 c36 -2 57 1 64 10 9 11 6 14 -15 14 -28 0 -35 17 -11
26 8 4 15 11 15 17 0 6 -11 1 -24 -12 -19 -18 -30 -21 -65 -15 -23 4 -48 12
-54 18 -34 33 -304 64 -507 59z m1200 -158 c19 -23 8 -26 -19 -4 -16 13 -18
19 -8 19 8 0 20 -7 27 -15z m21 -147 c82 -169 155 -380 140 -406 -10 -16 -10
-16 -11 1 0 22 -1 21 -44 -4 -33 -19 -44 -20 -171 -13 -203 10 -225 22 -46 23
129 1 157 4 173 18 50 45 4 60 -230 75 -166 11 -173 11 -187 -8 -10 -13 -14
-15 -15 -5 0 8 7 23 17 33 9 10 11 18 6 18 -27 0 -38 -35 -37 -120 0 -84 -1
-87 -25 -97 -37 -16 -95 -15 -83 0 5 7 6 21 2 32 -8 19 -8 19 -19 -5 -10 -22
-11 -19 -6 20 3 25 12 65 20 90 13 41 14 42 14 14 1 -17 4 -34 9 -38 4 -4 15
-28 24 -54 16 -41 17 -43 12 -12 -10 63 -46 190 -54 190 -4 0 -17 -38 -30 -85
-13 -47 -25 -84 -27 -81 -13 13 126 441 159 489 11 15 29 32 41 39 21 11 21
11 4 -13 -9 -13 -24 -37 -33 -53 -16 -29 -16 -29 27 8 56 47 130 69 219 64 52
-3 67 -1 63 9 -3 7 0 13 6 13 7 0 43 -64 82 -142z m-2521 117 c-7 -8 -17 -15
-22 -15 -14 0 -128 -81 -128 -91 0 -5 -5 -9 -11 -9 -15 0 -35 -22 -43 -48 -4
-13 -12 -19 -18 -16 -6 4 -8 3 -5 -3 3 -5 1 -28 -5 -50 -9 -35 -21 -49 -84
-94 -71 -50 -104 -81 -46 -43 65 43 179 107 289 163 104 53 129 62 210 72 126
16 134 11 89 -49 -71 -97 -142 -211 -191 -305 l-50 -96 -50 -5 c-27 -3 -124
-8 -215 -11 -91 -3 -230 -12 -310 -20 -80 -7 -165 -11 -188 -8 -30 4 -47 1
-60 -10 -9 -8 -49 -20 -89 -26 -39 -6 -78 -14 -87 -17 -37 -14 -10 19 82 103
143 131 213 189 352 295 159 121 224 164 335 224 96 52 157 72 219 73 33 1 37
-1 26 -14z m540 -207 c0 -4 -7 -8 -15 -8 -10 0 -15 10 -15 28 1 26 1 26 15 8
8 -11 15 -23 15 -28z m263 -44 c33 -17 31 -35 -4 -45 l-24 -7 26 -1 c40 -2 56
-29 75 -123 20 -103 16 -111 -54 -126 -70 -16 -482 -23 -482 -9 0 6 36 83 80
171 l79 161 138 -3 c96 -3 146 -8 166 -18z m57 -34 c0 -5 -4 -10 -10 -10 -5 0
-10 5 -10 10 0 6 5 10 10 10 6 0 10 -4 10 -10z m132 -143 c13 -61 13 -63 -17
-69 -18 -3 -20 3 -23 77 -3 72 -1 79 13 65 8 -9 21 -41 27 -73z m-61 11 c11
-56 11 -98 1 -98 -5 0 -13 36 -18 80 -10 82 2 95 17 18z m149 -13 c13 -14 22
-26 19 -28 -18 -11 -70 -24 -74 -17 -6 10 15 70 24 70 4 0 18 -11 31 -25z
m-2103 -147 c-10 -16 -12 -16 -15 -3 -2 9 -1 24 3 33 5 13 8 14 15 3 5 -9 3
-22 -3 -33z m3621 -35 c-15 -2 -42 -2 -60 0 -18 2 -6 4 27 4 33 0 48 -2 33 -4z
m-3073 -43 c4 -6 -15 -9 -52 -8 l-58 1 45 7 c25 4 48 8 52 8 4 1 10 -2 13 -8z
m735 -1 c42 -14 -475 -36 -584 -25 -177 20 39 35 399 30 99 -2 182 -4 185 -5z
m870 -19 c0 -6 -33 -9 -82 -8 -71 1 -77 2 -38 8 70 11 120 11 120 0z m-540
-36 c-172 -19 -491 -92 -505 -115 -4 -5 28 -9 77 -9 96 -1 89 -10 -27 -35 -99
-21 -332 -83 -363 -96 -48 -19 -220 -32 -272 -19 -28 7 -48 15 -45 20 10 16
321 116 508 164 106 27 333 72 497 99 14 2 75 4 135 4 l110 0 -115 -13z m113
-43 c-43 -11 -220 -25 -212 -17 10 11 90 22 169 23 56 1 67 0 43 -6z m-276
-17 c-3 -3 -12 -4 -19 -1 -8 3 -5 6 6 6 11 1 17 -2 13 -5z m3113 -172 c0 -8
-53 -42 -65 -42 -8 0 15 21 40 37 25 15 25 15 25 5z m-4636 -14 c-3 -4 -9 -8
-15 -8 -5 0 -9 4 -9 8 0 5 7 9 15 9 8 0 12 -4 9 -9z m51 -6 c-3 -3 -11 0 -18
7 -9 10 -8 11 6 5 10 -3 15 -9 12 -12z m-301 -84 c-9 -14 -69 -38 -94 -38 -11
0 -20 7 -20 15 0 26 85 60 107 42 7 -5 10 -14 7 -19z m4206 23 c0 -10 -25 -21
-48 -21 -12 0 -9 4 8 14 31 17 40 19 40 7z m-920 -55 c0 -3 -4 -8 -10 -11 -5
-3 -10 -1 -10 4 0 6 5 11 10 11 6 0 10 -2 10 -4z m-3307 -27 c-6 -6 -19 -9
-29 -6 -17 3 -16 5 6 14 28 12 39 8 23 -8z m3242 11 c-3 -5 -15 -10 -26 -10
-10 0 -19 5 -19 10 0 6 12 10 26 10 14 0 23 -4 19 -10z m-3310 -22 c6 -6 0 -8
-19 -6 -16 2 -31 9 -34 17 -3 10 2 11 19 6 13 -4 29 -12 34 -17z m3326 -8
c-35 -29 -55 -26 -28 5 6 8 21 14 32 14 19 0 19 -1 -4 -19z m1609 -4 c14 -1
30 -5 37 -9 6 -4 14 -3 18 3 10 17 21 11 32 -17 10 -25 11 -26 12 -6 1 21 3
21 69 -14 37 -19 72 -41 77 -47 6 -7 36 -31 68 -55 31 -24 57 -44 57 -45 0 0
-33 -1 -72 -1 -67 0 -78 -3 -135 -39 -54 -33 -68 -38 -103 -33 -56 7 -85 29
-127 95 -57 90 -81 112 -125 112 -21 0 -87 -19 -150 -45 -208 -82 -362 -108
-623 -104 l-20 0 20 11 c11 6 22 14 25 18 5 6 32 19 55 26 27 8 142 36 160 38
11 2 33 8 48 15 16 6 42 11 58 11 16 0 29 5 29 11 0 8 5 8 15 -1 8 -7 15 -8
15 -3 0 6 22 13 48 17 27 3 52 9 56 13 4 4 12 8 19 10 7 2 45 12 86 23 107 29
186 37 261 26 36 -4 76 -9 90 -10z m-2842 -57 c13 -5 42 -10 65 -10 23 -1 34
-3 25 -6 -23 -6 -23 -16 2 -38 11 -10 20 -22 20 -26 0 -15 -35 -15 -48 1 -11
13 -11 13 -6 -1 7 -21 -14 -26 -93 -23 -35 1 -63 -2 -63 -6 0 -5 -15 -10 -32
-12 -18 -2 -33 -7 -33 -13 0 -9 106 -9 162 1 22 4 37 1 48 -9 22 -22 19 -32
-16 -61 -30 -25 -32 -26 -45 -9 -12 17 -13 17 -28 -2 -8 -11 -16 -26 -16 -33
0 -15 -42 -6 -48 9 -2 5 -15 6 -28 3 -19 -5 -23 -3 -18 10 3 9 15 16 25 16 10
0 19 4 19 9 0 5 3 16 6 25 5 12 0 15 -20 14 -15 -1 -26 -8 -26 -17 0 -8 -12
-30 -27 -49 -17 -23 -23 -37 -15 -40 7 -2 12 -8 12 -13 0 -12 -37 -12 -45 1
-3 6 -14 10 -23 10 -14 0 -13 -2 2 -13 17 -12 13 -15 -40 -26 -100 -21 -299
-19 -369 3 -46 15 -93 20 -205 21 -346 3 -350 4 -350 23 0 24 34 76 72 113 81
75 249 114 598 139 91 7 206 15 255 20 97 8 246 2 283 -11z m-2519 -114 c-11
-49 -24 -103 -29 -120 l-8 -30 -1 35 c-1 63 40 223 54 208 2 -1 -6 -43 -16
-93z m82 15 c-10 -41 -23 -95 -29 -120 -10 -45 -10 -45 -11 -9 -1 49 18 148
36 182 23 44 24 28 4 -53z m-166 -45 c-18 -83 -24 -100 -24 -68 -1 65 30 195
44 181 2 -1 -8 -52 -20 -113z m260 105 c-4 -6 -17 -59 -31 -118 l-24 -107 4
70 c5 74 31 165 48 165 5 0 6 -5 3 -10z m476 -120 c-17 -62 -33 -115 -36 -118
-17 -17 14 142 39 203 29 69 28 30 -3 -85z m100 0 c-32 -120 -41 -140 -41 -96
0 53 54 226 66 213 3 -2 -9 -55 -25 -117z m-522 5 c-23 -110 -29 -126 -29 -72
0 63 32 188 45 175 3 -2 -5 -49 -16 -103z m619 -13 c-17 -62 -34 -112 -38
-112 -9 0 -8 3 11 90 13 59 47 146 54 138 2 -2 -10 -54 -27 -116z m-1012 3
c-9 -48 -18 -91 -22 -94 -10 -9 4 115 18 162 19 62 21 28 4 -68z m710 -20
c-21 -79 -24 -85 -25 -49 -1 46 41 191 46 159 2 -11 -8 -60 -21 -110z m402 12
c-17 -59 -35 -107 -38 -107 -11 0 18 127 40 178 33 74 32 43 -2 -71z m102 -6
c-17 -56 -35 -101 -40 -101 -10 0 19 113 45 174 30 70 27 29 -5 -73z m-1294
-16 c-13 -64 -14 -66 -15 -27 -1 48 22 149 26 117 2 -11 -3 -51 -11 -90z
m-491 45 c4 -6 0 -22 -9 -35 -22 -33 -20 -62 4 -77 11 -7 20 -17 20 -21 0 -10
-56 1 -88 17 l-23 12 35 43 c20 24 36 49 36 57 0 16 16 19 25 4z m1176 -56
c-6 -28 -9 -32 -10 -14 -1 30 11 79 16 64 2 -6 -1 -28 -6 -50z m-51 -200 c33
-34 76 -43 235 -50 242 -11 371 17 425 90 33 45 40 37 9 -9 -51 -76 -129 -96
-384 -95 -277 0 -316 18 -321 142 l-3 63 8 -58 c6 -39 16 -66 31 -83z m998 89
c-21 -2 -55 -2 -75 0 -21 2 -4 4 37 4 41 0 58 -2 38 -4z m212 -3 c-80 -4 -152
-3 -160 1 -8 5 57 8 145 7 l160 -1 -145 -7z m3822 -52 c-7 -7 -12 -8 -12 -2 0
14 12 26 19 19 2 -3 -1 -11 -7 -17z m29 -35 c-12 -20 -14 -14 -5 12 4 9 9 14
11 11 3 -2 0 -13 -6 -23z m-47 -17 c-3 -15 -8 -25 -11 -23 -2 3 -1 17 3 31 3
15 8 25 11 23 2 -3 1 -17 -3 -31z m-3827 0 c-4 -11 1 -14 19 -12 13 2 27 6 31
9 10 11 25 8 18 -3 -9 -15 58 -12 78 3 27 19 143 14 167 -8 27 -25 168 -44
321 -45 157 0 186 -5 191 -34 10 -53 1 -59 -74 -54 -71 6 -72 7 -110 62 -5 8
-135 11 -395 12 -213 1 -376 0 -361 -3 19 -3 25 -9 21 -19 -4 -12 -8 -12 -22
-2 -14 12 -14 11 -3 -4 8 -9 23 -19 35 -21 12 -2 -69 -5 -180 -6 -221 -1 -215
-3 -192 56 10 29 58 77 67 68 3 -3 -3 -13 -12 -24 -17 -19 -14 -19 163 -19
103 0 178 4 175 9 -3 5 -53 9 -112 9 -67 0 -103 3 -96 10 5 5 64 10 132 11 67
1 125 6 128 10 9 14 17 10 11 -5z m-294 -23 c-7 -2 -21 -2 -30 0 -10 3 -4 5
12 5 17 0 24 -2 18 -5z m-1796 -55 c-3 -7 -5 -2 -5 12 0 14 2 19 5 13 2 -7 2
-19 0 -25z m3273 -20 c0 -7 -7 -22 -16 -33 -12 -17 -29 -20 -117 -22 -56 -2
-125 -4 -153 -6 -52 -3 -84 -22 -84 -50 0 -7 -3 -16 -6 -19 -10 -11 -43 4 -49
22 -3 9 -15 22 -28 28 -19 9 -17 11 23 12 25 1 53 2 63 1 11 -2 17 5 17 17 0
33 29 47 114 53 156 11 236 10 236 -3z m-3372 -15 c-10 -2 -26 -2 -35 0 -10 3
-2 5 17 5 19 0 27 -2 18 -5z m129 -74 c30 -87 54 -106 145 -113 110 -8 328
-15 788 -26 499 -12 524 -9 588 56 23 25 42 39 42 33 0 -6 -19 -31 -42 -54
-68 -67 -89 -68 -648 -55 -587 13 -761 24 -809 47 -44 22 -77 70 -86 126 -4
23 -13 46 -19 50 -7 6 -6 7 4 4 8 -2 25 -32 37 -68z m2036 64 c-7 -2 -19 -2
-25 0 -7 3 -2 5 12 5 14 0 19 -2 13 -5z m-225 -28 c-8 -8 -228 -11 -228 -2 0
4 53 7 117 7 64 0 114 -2 111 -5z m4330 -31 c27 -19 49 -56 29 -48 -18 7 -41
-49 -62 -148 -8 -40 -21 -77 -28 -83 -21 -16 -27 -58 -12 -79 14 -18 15 -18
49 7 19 15 44 43 56 63 19 30 22 45 18 105 -3 38 -2 72 3 75 23 14 63 -134 75
-279 7 -83 -1 -95 -29 -47 -10 17 -21 30 -25 30 -16 0 -127 -50 -130 -58 -1
-4 -15 -7 -31 -4 -16 2 -32 -1 -36 -7 -9 -15 12 -41 34 -41 9 0 30 -14 46 -31
32 -33 73 -60 60 -40 -4 7 -4 34 0 61 7 50 7 50 43 50 21 0 44 -5 52 -10 10
-6 11 -10 3 -10 -8 0 -13 -14 -12 -37 0 -31 2 -34 9 -18 15 35 11 -83 -6 -176
-18 -97 -66 -195 -107 -219 -54 -30 -111 19 -142 125 -19 68 -19 72 5 80 11 3
24 21 30 38 9 28 9 25 5 -22 -2 -30 -9 -59 -15 -65 -13 -13 -13 -29 0 -21 6 3
13 -2 16 -12 16 -49 24 -57 19 -18 -2 22 -1 65 3 95 l8 55 7 -75 c9 -88 23
-146 39 -156 7 -5 9 4 4 30 -7 36 1 45 20 26 7 -7 11 12 12 55 2 49 -3 78 -18
113 -37 82 -100 128 -85 62 4 -17 2 -30 -3 -30 -14 0 -24 45 -17 73 4 15 1 28
-10 37 -19 16 -32 6 -16 -14 9 -11 7 -15 -11 -19 -12 -3 -25 -4 -30 -1 -15 9
-9 97 8 116 14 14 14 20 4 33 -16 19 -8 27 27 31 39 4 61 29 46 53 -9 14 -9
29 -3 53 6 18 10 40 10 48 0 13 -1 13 -10 0 -7 -11 -10 -7 -10 18 0 17 4 32 9
32 19 0 21 39 5 79 -9 23 -20 41 -25 41 -18 0 -8 20 29 60 43 44 56 48 90 24z
m-2346 -94 c70 -35 112 -73 162 -148 108 -163 148 -381 111 -610 -38 -235
-133 -398 -278 -478 -42 -23 -64 -29 -117 -29 -183 1 -333 173 -395 454 -29
133 -31 202 -9 332 44 255 161 436 323 496 53 19 147 12 203 -17z m-4197 -17
c0 -20 -2 -21 -22 -8 -30 20 -50 19 -62 -2 -6 -10 -11 -14 -11 -9 0 22 33 44
63 43 26 -2 32 -6 32 -24z m208 -78 c4 -25 4 -33 -2 -20 -4 11 -11 38 -14 60
-4 25 -4 33 2 20 4 -11 11 -38 14 -60z m-282 32 c-10 -9 -11 -8 -5 6 3 10 9
15 12 12 3 -3 0 -11 -7 -18z m73 6 c12 5 16 0 16 -18 0 -22 -4 -25 -35 -25
-37 0 -42 8 -24 42 8 15 13 17 19 8 4 -7 15 -10 24 -7z m2504 -8 c-2 -6 -11
-10 -20 -9 -10 0 -18 -3 -18 -7 0 -4 -3 -16 -6 -26 -6 -16 -5 -16 9 2 22 28
21 8 -5 -83 -13 -42 -32 -85 -43 -94 -24 -21 -8 -24 21 -4 13 10 25 11 35 5 8
-5 106 -9 218 -9 189 0 203 1 196 18 -25 64 -18 107 26 157 17 19 28 39 24 45
-7 11 8 14 19 3 4 -4 28 -8 54 -9 55 -1 105 -24 128 -59 22 -34 20 -112 -3
-143 -40 -53 -70 -67 -141 -66 -37 1 -190 2 -339 3 l-273 1 0 34 c0 61 48 209
76 234 26 22 49 26 42 7z m-2588 -30 c0 -8 -4 -15 -10 -15 -5 0 -7 7 -4 15 4
8 8 15 10 15 2 0 4 -7 4 -15z m767 9 c-3 -3 -12 -4 -19 -1 -8 3 -5 6 6 6 11 1
17 -2 13 -5z m163 -4 c-92 -6 -90 -6 47 -7 78 -1 148 -5 154 -9 7 -4 9 -3 6 3
-4 6 37 10 111 10 93 0 105 -1 57 -7 -33 -4 -58 -8 -55 -9 3 -1 101 -5 219 -8
168 -4 212 -3 206 7 -5 8 -3 11 3 9 8 -3 14 -50 17 -132 4 -107 2 -129 -10
-133 -14 -6 -512 8 -795 22 l-125 6 1 117 1 116 34 4 c32 4 33 4 9 11 -14 5
27 8 95 7 l120 -1 -95 -6z m898 -42 c28 -2 52 -6 52 -10 0 -5 6 -8 14 -8 8 0
31 -19 51 -42 61 -72 60 -78 -8 -42 -34 18 -89 37 -121 43 -33 6 -61 13 -64
15 -2 3 -1 19 3 37 4 17 10 27 14 21 3 -6 30 -12 59 -14z m4653 -63 c2 -33 7
-66 13 -73 5 -7 6 -15 3 -18 -3 -3 -11 4 -17 16 -14 26 -26 172 -12 150 6 -8
11 -42 13 -75z m-6369 42 c3 -31 2 -33 -24 -32 -16 1 -35 10 -43 21 -24 31
-22 33 51 43 7 0 14 -14 16 -32z m-90 -36 c-3 -8 -1 -12 4 -8 5 3 10 -4 10
-15 0 -18 -3 -17 -23 8 -13 16 -23 40 -23 54 l0 25 19 -24 c10 -14 16 -31 13
-40z m297 -1 c1 -13 0 -13 -9 0 -5 8 -9 24 -9 35 l0 20 9 -20 c5 -11 9 -27 9
-35z m-239 -35 c-7 -8 -16 -15 -21 -15 -5 0 -1 9 8 20 9 11 19 17 21 15 3 -3
-1 -11 -8 -20z m232 9 c3 -2 9 -23 13 -47 8 -49 30 -87 50 -87 9 0 12 -6 9
-17 -3 -10 6 5 21 32 14 28 35 59 47 70 l20 20 -17 -40 c-29 -69 -51 -137 -70
-215 -23 -97 -29 -105 -60 -74 -13 13 -29 24 -34 24 -6 0 -8 7 -4 16 5 14 3
14 -16 2 l-22 -13 31 -27 c36 -33 39 -50 8 -43 -13 2 -53 11 -89 19 -37 8 -92
27 -124 41 -49 21 -56 27 -45 40 12 14 15 14 30 0 9 -8 39 -17 66 -20 l49 -5
-47 17 c-26 10 -49 21 -52 24 -6 6 192 1 210 -5 8 -3 14 19 18 62 4 37 9 92
12 123 l6 56 -99 7 c-54 4 -106 10 -116 13 -18 5 -18 6 0 25 16 18 25 19 108
13 49 -4 93 -9 97 -11z m438 -48 c0 -29 -19 -44 -31 -25 -16 25 -10 49 11 49
15 0 20 -7 20 -24z m4610 -4 c0 -5 -7 -9 -15 -9 -8 0 -12 4 -9 9 3 4 9 8 15 8
5 0 9 -4 9 -8z m289 -11 c29 -4 71 -4 94 0 72 14 180 10 233 -8 l49 -17 -58
-7 c-32 -4 -64 -12 -70 -19 -9 -10 -8 -11 8 -7 26 7 157 11 265 7 l85 -3 -56
-11 c-31 -6 -62 -16 -70 -23 -8 -6 -62 -18 -122 -27 -59 -9 -178 -30 -265 -47
-86 -17 -312 -57 -502 -88 -328 -55 -346 -57 -358 -40 -8 12 -32 20 -75 25
-59 7 -60 8 -29 16 24 6 38 5 50 -4 13 -11 15 -10 9 5 -8 21 15 23 33 2 7 -8
18 -15 24 -15 6 0 3 7 -6 14 -10 7 -18 16 -18 20 0 12 28 6 40 -9 7 -8 18 -15
24 -15 6 0 3 7 -6 14 -10 7 -18 16 -18 20 0 12 28 6 40 -9 7 -8 17 -15 23 -15
6 0 2 6 -9 14 -10 8 -16 18 -11 22 4 4 21 -2 37 -15 17 -12 30 -17 30 -12 0 5
-7 11 -15 15 -22 8 -18 21 8 23 12 1 39 3 60 4 20 2 37 5 37 8 0 4 10 6 23 7
34 1 119 14 127 19 4 2 29 7 56 10 27 3 60 8 74 10 14 2 41 6 60 9 105 15 166
28 175 37 7 7 5 9 -5 5 -15 -4 -183 -32 -250 -40 -19 -3 -66 -10 -105 -16 -97
-15 -275 -42 -305 -45 -14 -2 -41 -6 -61 -10 -28 -5 -38 -3 -42 9 -4 9 -17 16
-29 15 l-23 0 23 -11 c32 -16 27 -25 -15 -32 -21 -3 -51 -13 -67 -21 -15 -8
-31 -15 -35 -15 -17 0 4 219 24 246 13 17 15 18 30 3 13 -13 14 -24 7 -57 -6
-25 -6 -40 -1 -36 5 3 18 -5 28 -17 14 -17 30 -23 61 -24 29 -1 47 -7 56 -20
8 -10 17 -15 21 -10 5 4 2 10 -4 12 -27 10 -11 22 35 28 74 11 354 59 572 100
l65 12 -58 4 c-31 2 -57 1 -57 -2 0 -4 -9 -9 -20 -12 -11 -3 -20 -1 -20 4 0 5
5 9 12 9 27 0 -4 12 -43 16 -24 3 -46 8 -49 11 -7 7 213 -6 279 -16z m811 -1
c0 -5 -5 -10 -11 -10 -5 0 -7 5 -4 10 3 6 8 10 11 10 2 0 4 -4 4 -10z m-1017
-16 c-5 -14 -29 -12 -43 2 -6 6 0 10 19 9 17 0 27 -4 24 -11z m-575 -25 c-10
-5 -20 -25 -24 -44 -7 -39 -18 -44 -34 -16 -16 30 -13 37 23 55 35 17 63 22
35 5z m-1620 -20 c-7 -5 -24 -9 -38 -8 l-25 0 24 13 c28 15 64 10 39 -5z
m-2511 -45 c-3 -3 -12 -4 -19 -1 -8 3 -5 6 6 6 11 1 17 -2 13 -5z m-64 -11
c-7 -2 -19 -2 -25 0 -7 3 -2 5 12 5 14 0 19 -2 13 -5z m-93 -26 c0 -2 -10 -12
-22 -23 l-23 -19 19 23 c18 21 26 27 26 19z m1235 -7 c27 -7 27 -8 5 -8 -14 0
-36 4 -50 8 -20 6 -21 8 -5 8 11 0 34 -4 50 -8z m75 -16 c0 -2 -7 -4 -15 -4
-8 0 -15 4 -15 10 0 5 7 7 15 4 8 -4 15 -8 15 -10z m-1417 -151 c-5 -33 -5
-33 -65 -33 -37 0 -57 4 -53 10 3 6 14 10 23 10 9 0 35 11 57 24 22 12 41 22
41 22 1 -1 -1 -16 -3 -33z m1655 26 c12 0 13 -2 4 -6 -10 -4 1 -21 34 -57 46
-48 45 -47 -16 9 -35 33 -67 62 -70 64 -3 2 3 1 13 -2 10 -4 26 -7 35 -8z
m667 -39 c38 -5 97 -10 130 -10 58 0 97 -12 78 -23 -5 -3 -37 -7 -71 -8 -33
-1 -66 -5 -72 -9 -20 -12 123 -19 220 -11 52 5 96 7 98 6 9 -8 -75 -25 -168
-34 -162 -15 -520 -25 -520 -14 0 10 176 52 225 54 25 1 23 3 -15 11 -45 10
-45 10 -23 28 12 10 19 21 15 25 -4 5 2 5 13 1 11 -4 51 -11 90 -16z m-465
-25 c13 -14 21 -25 18 -25 -2 0 -15 11 -28 25 -13 14 -21 25 -18 25 2 0 15
-11 28 -25z m3472 3 c3 -20 10 -23 50 -26 43 -3 49 -6 54 -30 3 -15 12 -47 20
-71 21 -66 20 -69 -28 -65 -55 5 -182 11 -328 17 -63 2 -216 8 -340 13 -124 5
-285 9 -358 9 -108 0 -129 2 -115 13 9 6 28 12 42 12 13 0 110 14 215 30 105
17 279 44 386 61 107 17 224 36 260 44 36 7 82 13 102 14 31 1 37 -3 40 -21z
m-4747 -78 c121 -5 306 -14 410 -20 105 -5 280 -15 390 -20 213 -12 270 -21
323 -52 43 -26 37 -31 -16 -13 -22 8 -97 19 -164 25 -68 5 -159 14 -203 20
-123 15 -432 17 -447 2 -7 -7 -23 -11 -37 -11 -25 1 -25 2 4 9 28 8 28 8 -10
8 -22 0 -44 0 -50 2 -5 1 -16 2 -24 1 -11 -1 -11 -4 -1 -16 8 -9 -13 -3 -51
14 -60 28 -73 30 -226 34 -169 5 -169 5 -134 -37 15 -18 15 -18 -9 -6 -31 16
-70 21 -70 9 0 -5 -5 -9 -11 -9 -5 0 -8 3 -6 8 3 4 -6 7 -19 7 -15 0 -22 -5
-19 -12 7 -21 -11 -15 -44 13 -56 46 -44 54 82 54 61 0 211 -5 332 -10z m678
-220 c70 -6 137 -10 148 -10 10 0 19 -4 19 -10 0 -6 -26 -10 -59 -10 -74 0
-350 -37 -373 -50 -23 -13 -23 -9 7 50 l25 49 52 -5 c29 -2 111 -9 181 -14z"/>
<path d="M5178 3540 c-51 -19 -64 -30 -93 -73 -15 -23 -16 -30 -5 -40 10 -10
12 -8 6 7 -4 13 -2 17 8 13 7 -3 20 0 27 6 7 7 5 1 -6 -12 -11 -14 -15 -21 -8
-18 6 4 14 1 16 -5 3 -8 6 -6 6 5 1 10 5 16 10 13 5 -3 11 1 15 9 3 8 12 12
21 9 10 -4 14 -1 12 7 -2 8 -2 11 0 7 3 -5 15 -8 28 -8 27 0 39 -22 22 -41
-10 -11 -9 -11 5 -1 13 10 17 10 22 0 3 -7 3 -3 0 10 -3 12 -2 22 3 22 5 0 9
-10 10 -21 1 -12 7 -27 14 -33 9 -8 10 -8 5 2 -9 16 14 70 33 77 12 5 12 3 0
-12 -8 -9 -9 -14 -2 -10 6 4 19 0 27 -9 15 -14 16 -14 13 3 -1 10 -6 24 -10
31 -5 8 -2 12 8 12 9 0 14 -4 11 -8 -2 -4 0 -14 6 -22 8 -12 9 -12 4 3 -3 9 0
17 6 17 7 0 7 4 0 13 -7 8 -7 18 -2 27 8 12 10 11 10 -5 0 -15 2 -17 13 -6 10
10 9 15 -5 25 -10 7 -16 15 -14 17 3 2 -34 5 -82 6 -63 1 -100 -4 -134 -17z"/>
<path d="M5170 3430 c6 -11 13 -20 16 -20 2 0 0 9 -6 20 -6 11 -13 20 -16 20
-2 0 0 -9 6 -20z"/>
<path d="M5190 3441 c0 -6 4 -13 10 -16 6 -3 7 1 4 9 -7 18 -14 21 -14 7z"/>
<path d="M5215 3440 c3 -5 8 -10 11 -10 2 0 4 5 4 10 0 6 -5 10 -11 10 -5 0
-7 -4 -4 -10z"/>
<path d="M5311 3431 c-10 -7 -11 -13 -2 -27 11 -18 11 -18 9 1 -2 14 2 20 15
19 9 -1 17 2 17 7 0 11 -21 11 -39 0z"/>
<path d="M3386 2362 c-6 -11 25 -92 37 -92 4 0 7 10 7 23 0 27 -35 83 -44 69z"/>
<path d="M3434 2358 c-8 -13 5 -28 25 -28 9 0 22 -5 29 -12 9 -9 12 -9 12 0 0
7 15 12 38 12 49 0 69 12 48 29 -16 14 -144 13 -152 -1z"/>
<path d="M3229 2353 c-44 -4 -47 -6 -59 -43 -7 -22 -10 -53 -6 -73 8 -43 34
-97 47 -97 12 0 11 17 -2 25 -18 11 -31 57 -20 68 14 14 24 3 24 -28 0 -27 51
-80 68 -69 6 3 2 12 -8 20 -17 13 -17 13 1 14 10 0 25 -8 32 -17 12 -17 15
-16 41 11 19 19 22 27 11 23 -10 -4 -18 -2 -18 4 0 6 9 13 20 16 16 4 20 14
20 50 0 25 -8 58 -17 74 -18 31 -19 31 -134 22z m-23 -50 c-8 -15 -15 -22 -16
-15 0 17 20 55 27 49 2 -3 -2 -18 -11 -34z m142 -65 c-3 -7 -23 -14 -46 -16
-23 -2 -42 -8 -42 -13 0 -6 -7 -4 -15 5 -21 21 -19 24 18 29 69 8 89 7 85 -5z
m-28 -48 c0 -5 -4 -10 -10 -10 -5 0 -10 5 -10 10 0 6 5 10 10 10 6 0 10 -4 10
-10z"/>
<path d="M3003 2342 l-42 -3 19 -32 c11 -18 20 -47 20 -65 0 -20 4 -31 10 -27
15 9 12 46 -5 79 -17 33 -10 50 9 23 7 -9 21 -17 30 -17 19 0 21 -32 4 -61
-11 -17 -10 -22 5 -33 21 -17 22 -30 1 -22 -11 4 -15 2 -11 -8 3 -7 -1 -23 -9
-35 -8 -12 -12 -26 -9 -31 3 -6 1 -10 -4 -10 -6 0 -11 -4 -11 -10 0 -5 18 -10
40 -10 22 0 40 3 40 8 0 4 22 7 49 7 27 0 53 3 57 8 4 4 -4 20 -18 35 -14 15
-29 37 -32 49 -5 15 -16 23 -39 25 -27 2 -33 8 -35 31 -4 31 13 37 21 7 7 -26
37 -26 37 -1 0 11 3 27 7 37 5 15 2 16 -27 11 -28 -6 -31 -5 -20 8 7 8 23 15
36 15 30 0 32 20 2 21 -59 4 -86 4 -125 1z"/>
<path d="M2800 2329 c-148 -11 -241 -38 -287 -81 -22 -21 -32 -45 -14 -34 4 3
20 -8 35 -25 20 -22 25 -34 17 -43 -6 -7 -8 -16 -4 -19 7 -8 253 -10 253 -2 0
2 -9 19 -20 37 -31 51 -21 158 15 158 10 0 10 -9 -1 -38 -14 -41 -6 -105 16
-126 9 -8 10 -5 4 14 -13 37 -10 108 4 122 11 11 12 8 7 -14 -9 -37 3 -88 16
-67 7 11 9 11 9 -4 0 -11 9 -21 20 -24 11 -3 20 -10 20 -15 0 -5 -10 -6 -22
-3 -18 6 -20 4 -12 -5 18 -18 49 -8 50 17 1 12 -5 24 -12 27 -30 11 -12 26 31
26 38 0 45 3 45 20 0 37 -32 90 -54 89 -12 -1 -64 -5 -116 -10z"/>
<path d="M3410 2220 c0 -5 5 -10 10 -10 6 0 10 5 10 10 0 6 -4 10 -10 10 -5 0
-10 -4 -10 -10z"/>
<path d="M3526 2215 c4 -8 10 -12 15 -9 14 8 10 24 -6 24 -9 0 -12 -6 -9 -15z"/>
<path d="M3600 2190 c0 -5 5 -10 10 -10 6 0 10 5 10 10 0 6 -4 10 -10 10 -5 0
-10 -4 -10 -10z"/>
<path d="M3010 2145 c-7 -9 -10 -18 -7 -21 3 -3 10 4 17 15 13 25 8 27 -10 6z"/>
<path d="M2425 2139 c-10 -14 -1 -21 19 -13 9 3 13 10 10 15 -7 12 -21 11 -29
-2z"/>
<path d="M2443 1893 c9 -2 23 -2 30 0 6 3 -1 5 -18 5 -16 0 -22 -2 -12 -5z"/>
<path d="M6690 1770 c-8 -5 -11 -10 -6 -10 5 0 1 -9 -9 -20 -10 -11 -14 -20
-8 -20 12 0 63 43 63 53 0 10 -22 8 -40 -3z"/>
<path d="M6693 1625 c0 -33 2 -45 4 -27 2 18 2 45 0 60 -2 15 -4 0 -4 -33z"/>
<path d="M6682 1540 c0 -14 2 -19 5 -12 2 6 2 18 0 25 -3 6 -5 1 -5 -13z"/>
<path d="M6805 1480 c-3 -5 -1 -10 4 -10 6 0 11 5 11 10 0 6 -2 10 -4 10 -3 0
-8 -4 -11 -10z"/>
<path d="M6740 1425 c-25 -19 -50 -35 -56 -35 -15 0 -49 -39 -41 -46 9 -10 99
24 140 52 22 15 45 23 55 20 9 -3 4 5 -11 19 -15 14 -31 25 -35 24 -4 0 -27
-16 -52 -34z"/>
<path d="M6597 1284 c-4 -4 -7 -14 -7 -23 0 -11 3 -12 11 -4 6 6 10 16 7 23
-2 6 -7 8 -11 4z"/>
<path d="M6679 1199 c28 -28 63 -73 76 -100 14 -27 29 -49 33 -49 14 0 48 29
35 30 -7 0 -28 24 -47 53 -34 51 -111 117 -136 117 -7 0 10 -23 39 -51z"/>
<path d="M6780 1172 c0 -12 23 -32 37 -32 22 0 15 16 -12 28 -14 6 -25 8 -25
4z"/>
<path d="M4245 1695 c-5 -1 -29 -8 -52 -15 -24 -7 -43 -17 -43 -22 0 -5 17
-35 37 -66 35 -52 38 -64 45 -150 5 -66 3 -105 -7 -135 l-13 -42 -1 61 c-2
138 -26 193 -113 256 l-28 19 -24 -28 c-14 -15 -36 -48 -50 -73 l-25 -46 19
-73 c26 -100 45 -136 86 -161 19 -12 36 -21 37 -19 2 2 9 16 17 32 7 15 19 27
27 27 18 0 17 -7 -8 -47 -26 -42 -20 -62 17 -55 20 4 25 1 22 -9 -3 -8 -11
-14 -19 -14 -8 0 -14 -7 -14 -15 0 -8 -6 -19 -12 -23 -7 -4 -13 -16 -13 -25 0
-14 -12 -18 -62 -20 -34 -2 -68 -8 -75 -14 -7 -6 -32 -38 -54 -71 l-42 -61 16
-66 c9 -36 23 -82 31 -102 15 -35 19 -37 49 -32 88 16 97 22 133 97 41 85 44
124 12 129 -16 2 -24 12 -29 36 -6 31 -5 32 10 17 24 -21 34 -19 28 6 -4 16
-3 18 8 9 22 -18 51 5 70 55 10 25 24 45 31 45 8 0 14 7 14 15 0 8 5 15 10 15
6 0 20 9 32 20 12 10 26 16 31 13 10 -6 -21 -37 -46 -46 -6 -2 -10 -7 -7 -10
10 -11 108 24 191 69 92 49 97 50 142 29 l32 -16 -23 20 c-13 11 -36 30 -50
42 l-27 21 38 -21 c21 -12 40 -21 42 -21 5 0 -22 109 -38 155 l-15 40 -11 -30
c-6 -16 -16 -42 -22 -56 -15 -38 -171 -161 -185 -146 -3 2 27 35 66 72 76 74
84 92 96 205 l6 66 -57 52 c-31 29 -60 52 -63 52 -8 -1 -63 -74 -80 -106 -6
-11 -16 -58 -21 -103 -17 -136 -32 -134 -25 4 5 103 10 129 35 183 15 34 23
59 16 55 -7 -4 -30 -20 -51 -35 -21 -15 -44 -28 -50 -28 -6 0 6 12 27 27 20
14 37 29 37 33 0 8 -81 -3 -97 -13 -6 -4 -14 -3 -17 2 -7 11 37 22 95 25 51 3
63 16 13 15 -21 0 -43 -2 -49 -4z m19 -214 c-6 -6 -24 19 -24 34 1 6 7 1 15
-9 8 -11 12 -22 9 -25z m-189 -51 c3 -5 1 -10 -4 -10 -6 0 -11 5 -11 10 0 6 2
10 4 10 3 0 8 -4 11 -10z m-5 -150 c0 -5 -7 -10 -15 -10 -8 0 -15 5 -15 10 0
6 7 10 15 10 8 0 15 -4 15 -10z m237 -42 c35 -25 39 -33 21 -44 -6 -4 -17 1
-24 12 -7 10 -21 27 -30 37 -24 24 -7 21 33 -5z m-97 -156 c-9 -50 -14 -57
-35 -48 -26 10 -16 68 15 83 13 6 25 11 26 10 1 -1 -1 -21 -6 -45z m-75 -52
c3 -5 1 -10 -4 -10 -6 0 -11 5 -11 10 0 6 2 10 4 10 3 0 8 -4 11 -10z"/>
<path d="M3910 1283 c-8 -32 -15 -102 -16 -156 l-2 -98 39 36 c32 29 47 35 84
35 35 0 43 3 39 15 -9 23 23 19 36 -5 9 -17 8 -19 -7 -13 -15 5 -15 3 2 -10
17 -13 21 -13 32 2 29 38 16 59 -56 96 -64 32 -71 39 -98 94 -15 33 -31 60
-34 60 -3 1 -12 -25 -19 -56z"/>
<path d="M4480 1136 c-36 -13 -96 -29 -135 -36 -101 -19 -120 -46 -60 -86 20
-13 28 -14 40 -4 8 7 15 19 15 27 0 22 27 44 45 37 12 -5 16 -17 14 -48 -1
-22 -6 -46 -11 -52 -5 -7 16 -34 58 -73 53 -49 72 -61 97 -60 44 1 75 13 58
23 -12 8 -10 79 5 175 5 31 8 33 35 27 16 -3 29 -2 28 2 -1 12 -99 92 -112 91
-7 0 -41 -11 -77 -23z"/>
<path d="M4257 984 c-12 -13 5 -25 18 -14 10 9 15 6 21 -12 4 -13 26 -44 49
-70 23 -26 59 -79 79 -118 21 -39 43 -70 49 -67 7 2 40 12 74 23 35 10 63 22
63 27 0 4 -19 7 -41 7 -36 0 -46 5 -73 37 -79 92 -122 135 -164 163 -45 30
-63 36 -75 24z"/>
<path d="M4189 973 c-1 -5 -1 -11 0 -15 0 -5 -5 -8 -13 -8 -11 0 -11 -8 -3
-39 9 -32 7 -49 -13 -102 -40 -110 -57 -136 -106 -165 l-45 -27 38 -39 c21
-22 51 -49 68 -61 l30 -22 -23 32 c-13 18 -27 35 -32 38 -6 4 -10 11 -10 17 0
16 57 -40 82 -79 11 -18 24 -33 29 -33 6 0 8 4 5 8 -3 5 -10 38 -16 74 -8 55
-7 80 11 164 19 93 21 161 5 209 -4 11 0 8 9 -7 18 -33 36 -35 52 -9 11 17 8
23 -18 45 -31 26 -48 32 -50 19z"/>
<path d="M4245 880 c-12 -4 -17 -26 -22 -95 -10 -151 -7 -196 16 -258 21 -53
24 -57 49 -51 15 4 40 16 55 26 21 15 31 17 41 8 20 -16 24 -4 32 97 6 88 6
93 -26 161 -46 101 -87 132 -145 112z m135 -214 c0 -3 -4 -8 -10 -11 -5 -3
-10 -1 -10 4 0 6 5 11 10 11 6 0 10 -2 10 -4z m-50 -131 c0 -8 -4 -15 -10 -15
-5 0 -10 7 -10 15 0 8 5 15 10 15 6 0 10 -7 10 -15z"/>
<path d="M4484 692 c-7 -4 -9 -23 -5 -52 l7 -45 27 53 27 52 -22 0 c-13 0 -28
-4 -34 -8z"/>
<path d="M3200 1590 c0 -5 14 -13 32 -18 17 -4 34 -14 36 -22 3 -9 -1 -11 -12
-7 -14 6 -16 3 -11 -13 7 -23 -10 -28 -19 -5 -10 26 -24 16 -25 -17 0 -18 -2
-44 -3 -58 -2 -19 2 -26 20 -28 12 -2 22 -7 22 -12 0 -5 10 -11 23 -13 19 -4
18 -4 -5 -6 -17 -1 -40 10 -61 29 -40 35 -44 36 -49 13 -8 -36 -40 46 -34 86
5 32 4 33 -5 11 -19 -44 -5 -111 30 -142 75 -67 211 -6 211 94 0 33 -35 85
-69 103 -34 17 -81 20 -81 5z m130 -106 c0 -8 -9 -24 -20 -36 -16 -17 -22 -19
-35 -8 -11 9 -15 9 -15 1 0 -7 -4 -9 -10 -6 -15 9 -12 45 5 51 8 4 15 12 15
20 0 8 5 14 10 14 6 0 10 10 10 23 0 19 2 18 20 -11 11 -18 20 -39 20 -48z"/>
<path d="M195 1520 c-3 -5 -1 -10 4 -10 6 0 11 5 11 10 0 6 -2 10 -4 10 -3 0
-8 -4 -11 -10z"/>
<path d="M5910 1354 c-143 -23 -150 -25 -150 -34 0 -5 13 -5 29 0 16 4 70 14
120 20 50 7 91 17 91 21 0 5 -1 9 -2 8 -2 -1 -41 -7 -88 -15z"/>
<path d="M5286 1287 c3 -10 9 -15 12 -12 3 3 0 11 -7 18 -10 9 -11 8 -5 -6z"/>
<path d="M4890 1281 c0 -9 30 -24 36 -18 2 1 -6 8 -16 15 -11 7 -20 8 -20 3z"/>
<path d="M5206 1275 c4 -8 11 -15 16 -15 6 0 5 6 -2 15 -7 8 -14 15 -16 15 -2
0 -1 -7 2 -15z"/>
<path d="M5080 1274 c0 -13 18 -39 24 -34 2 3 -2 14 -10 24 -8 11 -14 16 -14
10z"/>
<path d="M4986 1245 c25 -19 40 -19 24 0 -7 8 -20 15 -28 15 -13 0 -12 -3 4
-15z"/>
<path d="M4866 1234 c-10 -27 -7 -38 7 -26 7 6 24 9 38 6 l24 -6 -25 21 c-30
25 -36 26 -44 5z"/>
<path d="M5197 1199 c7 -7 15 -10 18 -7 3 3 -2 9 -12 12 -14 6 -15 5 -6 -5z"/>
<path d="M5323 3685 c0 -9 10 -15 26 -15 14 0 37 -3 51 -6 24 -5 25 -5 5 11
-11 9 -28 14 -37 11 -10 -2 -21 0 -24 5 -8 14 -21 11 -21 -6z"/>
<path d="M5485 3610 c3 -5 11 -10 16 -10 6 0 7 5 4 10 -3 6 -11 10 -16 10 -6
0 -7 -4 -4 -10z"/>
<path d="M5645 3570 c27 -12 43 -12 25 0 -8 5 -22 9 -30 9 -10 0 -8 -3 5 -9z"/>
<path d="M5700 3550 c8 -5 20 -10 25 -10 6 0 3 5 -5 10 -8 5 -19 10 -25 10 -5
0 -3 -5 5 -10z"/>
<path d="M5750 3530 c8 -5 20 -10 25 -10 6 0 3 5 -5 10 -8 5 -19 10 -25 10 -5
0 -3 -5 5 -10z"/>
<path d="M5820 3505 c0 -7 61 -37 66 -33 2 3 -12 12 -31 21 -19 9 -35 15 -35
12z"/>
<path d="M5620 3271 c0 -5 5 -13 10 -16 6 -3 10 -2 10 4 0 5 -4 13 -10 16 -5
3 -10 2 -10 -4z"/>
<path d="M4885 3240 c-4 -17 -5 -34 -2 -36 3 -3 8 9 12 26 4 17 5 34 2 36 -3
3 -8 -9 -12 -26z"/>
<path d="M5641 3230 c0 -8 4 -22 9 -30 12 -18 12 -2 0 25 -6 13 -9 15 -9 5z"/>
<path d="M4871 3174 c0 -11 3 -14 6 -6 3 7 2 16 -1 19 -3 4 -6 -2 -5 -13z"/>
<path d="M6403 3078 c3 -9 11 -34 16 -55 6 -21 16 -46 23 -54 13 -15 80 -68
106 -83 23 -14 -49 92 -95 139 -12 13 -20 25 -17 27 2 3 -6 13 -18 24 -18 16
-21 17 -15 2z"/>
<path d="M6345 2890 c3 -5 8 -10 11 -10 2 0 4 5 4 10 0 6 -5 10 -11 10 -5 0
-7 -4 -4 -10z"/>
<path d="M6570 2870 c0 -5 5 -10 11 -10 5 0 7 5 4 10 -3 6 -8 10 -11 10 -2 0
-4 -4 -4 -10z"/>
<path d="M1975 2850 c-13 -6 2 -7 40 -3 33 3 62 7 64 9 9 8 -85 2 -104 -6z"/>
<path d="M5983 2853 c9 -2 25 -2 35 0 9 3 1 5 -18 5 -19 0 -27 -2 -17 -5z"/>
<path d="M5863 2843 c9 -2 23 -2 30 0 6 3 -1 5 -18 5 -16 0 -22 -2 -12 -5z"/>
<path d="M5790 2797 c0 -17 29 -63 54 -86 30 -28 34 -17 9 19 -25 35 -63 76
-63 67z"/>
<path d="M5857 2744 c6 -17 35 -18 51 -2 9 9 12 9 12 -1 0 -7 5 -9 10 -6 21
13 8 22 -34 22 -34 1 -43 -3 -39 -13z"/>
<path d="M6373 2715 c-8 -23 1 -28 38 -20 31 7 32 8 14 21 -25 18 -44 18 -52
-1z"/>
<path d="M1773 2625 c0 -8 4 -12 9 -9 5 3 6 10 3 15 -9 13 -12 11 -12 -6z"/>
<path d="M891 2615 c-19 -6 -30 -14 -25 -18 5 -3 25 3 44 14 40 21 32 23 -19
4z"/>
<path d="M620 2443 c-14 -7 -29 -15 -35 -17 -6 -3 -3 -9 5 -15 21 -15 14 -14
-59 9 -35 11 -66 19 -68 16 -2 -2 31 -23 74 -46 43 -24 91 -52 106 -63 l29
-20 -16 30 c-8 17 -22 33 -31 36 -13 5 -12 11 6 42 25 42 23 46 -11 28z"/>
<path d="M480 2328 c0 -7 -7 -25 -14 -40 -14 -26 -13 -28 3 -28 11 0 21 9 24
23 2 12 8 30 12 40 5 12 3 17 -9 17 -9 0 -16 -6 -16 -12z"/>
<path d="M582 2318 c-22 -22 -13 -34 23 -30 36 4 38 15 6 31 -12 7 -22 6 -29
-1z"/>
<path d="M526 2284 c-4 -9 -4 -19 -1 -22 2 -3 7 3 11 12 4 9 4 19 1 22 -2 3
-7 -3 -11 -12z"/>
<path d="M400 2270 c0 -5 5 -10 11 -10 5 0 7 5 4 10 -3 6 -8 10 -11 10 -2 0
-4 -4 -4 -10z"/>
<path d="M400 2233 c0 -19 17 -43 31 -43 11 0 -2 38 -17 51 -11 9 -14 8 -14
-8z"/>
<path d="M445 2230 c-3 -5 0 -12 5 -15 6 -4 15 -18 20 -31 6 -14 18 -24 29
-24 19 0 19 2 7 32 -14 32 -50 55 -61 38z"/>
<path d="M520 2206 c0 -15 18 -31 26 -23 7 7 -7 37 -17 37 -5 0 -9 -6 -9 -14z"/>
<path d="M6902 2144 c-11 -12 -10 -19 7 -40 11 -14 23 -39 26 -55 13 -57 16
-21 4 40 -13 68 -18 75 -37 55z"/>
<path d="M155 2031 l-69 -76 64 59 c36 33 69 63 74 67 4 4 7 12 5 17 -2 5 -35
-25 -74 -67z"/>
<path d="M395 2070 c3 -5 17 -10 31 -10 16 0 24 -6 24 -17 0 -9 3 -14 6 -10 3
3 3 15 -1 26 -4 15 -15 21 -36 21 -18 0 -28 -4 -24 -10z"/>
<path d="M367 2046 c-4 -10 -1 -13 8 -9 8 3 12 9 9 14 -7 12 -11 11 -17 -5z"/>
</g>
</svg>
